<svg xmlns="http://www.w3.org/2000/svg" xmlns:xlink="http://www.w3.org/1999/xlink" viewBox="0 0 1920 436"><defs><path id="prefix__a" d="M0 0h1920v436H0z"/></defs><clipPath id="prefix__b"><use xlink:href="#prefix__a" overflow="visible"/></clipPath><path clip-path="url(#prefix__b)" fill="#545454" d="M1 0h1920v436H1z"/><g clip-path="url(#prefix__b)"><linearGradient id="prefix__c" gradientUnits="userSpaceOnUse" x1="1569.246" y1="-582.17" x2="975.192" y2="-529.203" gradientTransform="matrix(3.7488 -.9822 .2535 .9673 -2891.03 1454.674)"><stop offset="0" stop-color="red"/><stop offset="1" stop-color="#004a61"/></linearGradient><path fill="url(#prefix__c)" d="M525-173.2L1810.5-223l642.8-24.9 642.7-24.9-943.7-301.1-943.7-301L2011.3-411l401.4 232 401.4 231.9-1144.6-113z"/><linearGradient id="prefix__d" gradientUnits="userSpaceOnUse" x1="1530.104" y1="-669.994" x2="979.819" y2="-554.764" gradientTransform="matrix(3.5797 -.7614 .1965 .9237 -2775.285 1240.68)"><stop offset="0" stop-color="red"/><stop offset="1" stop-color="#09475e"/></linearGradient><path fill="url(#prefix__d)" d="M2699.9 106L1591.3-12.7l-204.5-21.9-904.2-96.8L881.3-151l836.7-29 624.2-21.7 624.2-21.7-848.5-272.4-102.5-32.9-746-239.6-183.1-58.6 451.9 253.8 362.1 203.3L2177.6-214l126.2 77.3 135 82.7z"/><linearGradient id="prefix__e" gradientUnits="userSpaceOnUse" x1="1494.518" y1="-758.063" x2="973.897" y2="-583.274" gradientTransform="matrix(3.4106 -.5406 .1395 .8801 -2659.54 1026.686)"><stop offset="0" stop-color="red"/><stop offset="1" stop-color="#11435a"/></linearGradient><path fill="url(#prefix__e)" d="M2585.7 159L1513 34.7l-197.8-22.9-875-101.3 373.4-22.9 811.9-24.7 605.6-18.4 605.6-18.5-854.9-276.3-103.3-33.3-751.6-242.9L964-778.9l458.1 250 367.1 200.3 281.2 153.4 124.5 80.8 133.2 86.3z"/><linearGradient id="prefix__f" gradientUnits="userSpaceOnUse" x1="1465.553" y1="-849.57" x2="955.983" y2="-608.803" gradientTransform="matrix(3.2415 -.3198 .08253 .8365 -2543.795 812.692)"><stop offset="0" stop-color="red"/><stop offset="1" stop-color="#1a4057"/></linearGradient><path fill="url(#prefix__f)" d="M2471.5 212L1434.7 82.1l-191.2-23.9L397.8-47.7 746-73.8l787-20.4 587-15.2 587-15.1-861.3-280.2-104.1-33.8-757.3-246.3L841.6-731l464.5 246.3 372 197.3 285 151.1L2086-52.1l131.4 90z"/><linearGradient id="prefix__g" gradientUnits="userSpaceOnUse" x1="1445.121" y1="-948.5" x2="926.662" y2="-624.256" gradientTransform="matrix(3.0725 -.09905 .02556 .7928 -2428.05 598.699)"><stop offset="0" stop-color="red"/><stop offset="1" stop-color="#233d53"/></linearGradient><path fill="url(#prefix__g)" d="M2357.4 265l-1001-135.4-184.6-25L355.4-5.9l323-29.3 762.1-16 568.4-12 568.4-11.9-867.8-284-104.8-34.3L841.8-643l-122.5-40L1190-440.5l377 194.3 288.9 148.8L1977-9.8l129.6 93.6z"/><linearGradient id="prefix__h" gradientUnits="userSpaceOnUse" x1="1433.169" y1="-1058.836" x2="889.064" y2="-622.091" gradientTransform="matrix(2.9034 .1217 -.03142 .7492 -2312.305 384.705)"><stop offset="0" stop-color="red"/><stop offset="1" stop-color="#2b3950"/></linearGradient><path fill="url(#prefix__h)" d="M2243.2 318.1L1278.1 177l-177.9-26L313.1 35.9 610.8 3.4l737.1-11.7 549.9-8.7 549.8-8.7-874.2-287.8-105.6-34.8-768.6-253L597-635l476.9 238.8L1456-205l292.7 146.5 119.4 91 127.8 97.3z"/><linearGradient id="prefix__i" gradientUnits="userSpaceOnUse" x1="1426.851" y1="-1183.173" x2="849.092" y2="-595.544" gradientTransform="matrix(2.7343 .3425 -.08839 .7056 -2196.56 170.711)"><stop offset="0" stop-color="red"/><stop offset="1" stop-color="#34364c"/></linearGradient><path fill="url(#prefix__i)" d="M2129 371.1l-929.2-146.7-171.3-27L270.7 77.7 543.2 42l712.2-7.3 531.3-5.5 531.3-5.5-880.7-291.6-106.4-35.2-774.3-256.4-81.9-27.5 483.1 235 387.1 188.2 296.5 144.2 117.8 94.4 126 101z"/><linearGradient id="prefix__j" gradientUnits="userSpaceOnUse" x1="1420" y1="-1320.739" x2="815.026" y2="-540.337" gradientTransform="matrix(2.5652 .5633 -.1454 .6619 -2080.815 -43.282)"><stop offset="0" stop-color="red"/><stop offset="1" stop-color="#3d3249"/></linearGradient><path fill="url(#prefix__j)" d="M2014.8 424.1l-893.3-152.3-164.7-28-728.5-124.3 247.3-38.9 687.3-3 512.7-2.2 512.7-2.3-887.1-295.4L1194-258 414.1-517.8 352.4-539l489.4 231.2 392 185.2 300.4 141.9 116.1 97.8 124.2 104.6z"/><linearGradient id="prefix__k" gradientUnits="userSpaceOnUse" x1="1403.402" y1="-1465.209" x2="796.159" y2="-456.639" gradientTransform="matrix(2.3961 .7841 -.2023 .6183 -1965.07 -257.276)"><stop offset="0" stop-color="red"/><stop offset="1" stop-color="#452f45"/></linearGradient><path fill="url(#prefix__k)" d="M1900.6 477.2l-857.3-157.9-158.1-29.1-699.3-128.8L408 119.2l662.4 1.3 494.1 1 494.1 1-893.5-299.3-107.9-36.1L271.5-476 230-491l495.7 227.4 397.1 182.2 304.1 139.6 114.5 101.2 122.4 108.3z"/><linearGradient id="prefix__l" gradientUnits="userSpaceOnUse" x1="1373.118" y1="-1614.93" x2="806.977" y2="-362.222" gradientTransform="matrix(2.2271 1.0049 -.2593 .5747 -1849.325 -471.27)"><stop offset="0" stop-color="red"/><stop offset="1" stop-color="#4e2c42"/></linearGradient><path fill="url(#prefix__l)" d="M1804.3 530.2L982.8 366.7l-151.4-30.2-670-133.3 196.9-45.4 637.5 5.7 475.5 4.2 475.5 4.2-900-303.1-108.7-36.6-791.2-266.5-21.3-8.7 501.9 223.7 402.1 179.1 308 137.3 112.7 104.6L1571 313.6z"/><linearGradient id="prefix__m" gradientUnits="userSpaceOnUse" x1="1321.063" y1="-1763.274" x2="851.493" y2="-281.936" gradientTransform="matrix(2.058 1.2257 -.3163 .531 -1733.58 -685.264)"><stop offset="0" stop-color="red"/><stop offset="1" stop-color="#57283e"/></linearGradient><path fill="url(#prefix__m)" d="M1730.1 583.2L944.5 414.1l-144.8-31.2L158.9 245l171.7-48.6 612.6 10 456.9 7.5 457 7.4L950.7-85.6l-109.5-37.1L44.3-392.5l-1.1-2.5 508.2 219.9L958.5 1l311.8 135 111.1 108 118.8 115.6z"/><linearGradient id="prefix__n" gradientUnits="userSpaceOnUse" x1="1235.867" y1="-1884.162" x2="918.006" y2="-226.751" gradientTransform="matrix(1.8889 1.4465 -.3733 .4874 -1617.835 -899.257)"><stop offset="0" stop-color="red"/><stop offset="1" stop-color="#60253b"/></linearGradient><path fill="url(#prefix__n)" d="M1665.5 638.2L915.8 463.4l-138.2-32.2-611.5-142.5 146.5-51.8 587.7 14.3 438.3 10.7 438.4 10.7L864.1-38.1 753.9-75.6-48.7-348.9l19.2 3.8L484.9-129 897 44.1l315.6 132.6 109.5 111.5 117 119.3z"/><linearGradient id="prefix__o" gradientUnits="userSpaceOnUse" x1="1118.3" y1="-1950.756" x2="992.154" y2="-201.547" gradientTransform="matrix(1.7198 1.6673 -.4302 .4438 -1502.09 -1113.251)"><stop offset="0" stop-color="red"/><stop offset="1" stop-color="#682238"/></linearGradient><path fill="url(#prefix__o)" d="M1601.4 694.3L887.6 514 756 480.7 173.8 333.6l121.3-55 562.7 18.7 419.8 13.9 419.8 14L778.1 10.6l-111-38L-141.2-304l39.5 10L418.9-81.7 836 88.4l319.5 130.3 107.7 115 115.3 122.8z"/><linearGradient id="prefix__p" gradientUnits="userSpaceOnUse" x1="979.79" y1="-1950.262" x2="1059.044" y2="-209.546" gradientTransform="matrix(1.5507 1.8881 -.4872 .4002 -1386.344 -1327.245)"><stop offset="0" stop-color="red"/><stop offset="1" stop-color="#711e34"/></linearGradient><path fill="url(#prefix__p)" d="M1537.3 750.5l-677.9-186-125-34.3-552.9-151.6 96.1-58.3 537.8 23.1 401.2 17.1 401.2 17.2L692.1 59.3 580.3 20.8l-814-279.9 59.7 16.2L352.9-34.3 775 132.8l323.3 128 106.1 118.3 113.4 126.5z"/><linearGradient id="prefix__q" gradientUnits="userSpaceOnUse" x1="836.654" y1="-1880.242" x2="1117.227" y2="-174.08" gradientTransform="matrix(1.3817 2.1089 -.5442 .3565 -1270.6 -1541.239)"><stop offset="0" stop-color="red"/><stop offset="1" stop-color="#7a1b31"/></linearGradient><path fill="url(#prefix__q)" d="M1473.2 806.6l-642-191.5-118.4-35.4-523.6-156.2 70.8-61.4 513 27.3 382.6 20.4 382.6 20.5L606 108 493.5 69.1l-819.6-283.4 79.9 22.5L286.9 13 714 177.1l327.2 125.7 104.3 121.7 111.7 130.2z"/><linearGradient id="prefix__r" gradientUnits="userSpaceOnUse" x1="705.769" y1="-1749.19" x2="1198.981" y2="-37.076" gradientTransform="matrix(1.2126 2.3297 -.6012 .3129 -1154.854 -1755.232)"><stop offset="0" stop-color="red"/><stop offset="1" stop-color="#82182d"/></linearGradient><path fill="url(#prefix__r)" d="M1409.1 862.8L803 665.6l-111.8-36.3-494.3-160.8 45.6-64.7 488 31.7 364.1 23.6 364 23.7L520 156.7l-113.4-39.4-825.2-286.7 100.2 28.8 539.3 201 432.1 161 331 123.4 102.7 125.1 109.9 133.9z"/><linearGradient id="prefix__s" gradientUnits="userSpaceOnUse" x1="600.648" y1="-1572.773" x2="1281.707" y2="47.254" gradientTransform="matrix(1.0435 2.5505 -.6581 .2693 -1039.11 -1969.226)"><stop offset="0" stop-color="red"/><stop offset="1" stop-color="#8b142a"/></linearGradient><path fill="url(#prefix__s)" d="M1345 918.9L774.8 716.1l-105.2-37.3-465-165.4 20.4-67.9 463.1 36.1 345.4 26.8 345.5 26.9-945.1-329.9-114.1-39.8-830.9-290.1 120.4 35 545.6 197.2 437.1 158 334.8 121.1 101.1 128.6 108 137.5z"/><linearGradient id="prefix__t" gradientUnits="userSpaceOnUse" x1="529.545" y1="-1369.245" x2="1351.519" y2="81.606" gradientTransform="matrix(.8744 2.7712 -.7151 .2256 -923.364 -2183.22)"><stop offset="0" stop-color="red"/><stop offset="1" stop-color="#941126"/></linearGradient><path fill="url(#prefix__t)" d="M1280.9 975.1L746.6 766.7l-98.5-38.4-435.8-170-4.8-71.1 438.2 40.4 326.8 30.1 326.9 30.2-951.5-333.8L233 213.8-603.6-79.6l140.7 41.2L88.9 155.1l442.1 155 338.7 118.7 99.3 132 106.3 141.1z"/><linearGradient id="prefix__u" gradientUnits="userSpaceOnUse" x1="495.456" y1="-1155.888" x2="1398.646" y2="75.223" gradientTransform="matrix(.7053 2.992 -.7721 .182 -807.619 -2397.214)"><stop offset="0" stop-color="red"/><stop offset="1" stop-color="#9c0d23"/></linearGradient><path fill="url(#prefix__u)" d="M1216.8 1031.2l-498.4-214-91.9-39.4-406.6-174.5-30-74.3 413.3 44.7L911.5 607l308.3 33.4-957.9-337.6L146.2 262-696-34.8l160.9 47.5 558 189.7 447.1 152 342.5 116.4 97.7 135.4L1014.7 751z"/><linearGradient id="prefix__v" gradientUnits="userSpaceOnUse" x1="496.869" y1="-939.711" x2="1417.571" y2="47.73" gradientTransform="matrix(.5363 3.2128 -.8291 .1384 -691.874 -2611.207)"><stop offset="0" stop-color="red"/><stop offset="1" stop-color="#a50a1f"/></linearGradient><path fill="url(#prefix__v)" d="M1146.5 1087.4L683.9 867.8l-85.3-40.5-377.2-179.1-55.3-77.5 388.4 49 289.7 36.6 289.7 36.6-964.3-341.4-116.5-41.2-847.9-300.2 181.1 53.7 564.4 186 452.1 148.9 346.3 114.1 96 138.9 102.7 148.4z"/><linearGradient id="prefix__w" gradientUnits="userSpaceOnUse" x1="530.26" y1="-737.984" x2="1407.636" y2="5.334" gradientTransform="matrix(.3672 3.4336 -.886 .09475 -576.129 -2825.201)"><stop offset="0" stop-color="red"/><stop offset="1" stop-color="#ae071c"/></linearGradient><path fill="url(#prefix__w)" d="M1074.6 1143.5L647.9 918.3l-78.6-41.5-348-183.7-80.4-80.7 363.4 53.4 271.2 39.8 271.1 39.9L75.8 400.2l-117.2-41.7L-895 55l201.4 59.9 570.5 182.2L334 443l350.2 111.8 94.3 142.3 100.9 152.1z"/><linearGradient id="prefix__x" gradientUnits="userSpaceOnUse" x1="589.947" y1="-559.997" x2="1370.79" y2="-42.388" gradientTransform="matrix(.1981 3.6544 -.943 .05112 -460.384 -3039.195)"><stop offset="0" stop-color="red"/><stop offset="1" stop-color="#b60318"/></linearGradient><path fill="url(#prefix__x)" d="M1002.8 1199.7L612 968.9l-72.1-42.6-318.7-188.2-105.6-84 338.6 57.8 252.5 43L959.2 798-18 448.9l-118-42.1-859.2-306.9 221.6 66.1 576.8 178.4 462.1 143 354 109.4 92.6 145.7L811 898.3z"/><linearGradient id="prefix__y" gradientUnits="userSpaceOnUse" x1="669.389" y1="-410.248" x2="1311.047" y2="-86.009" gradientTransform="matrix(.02902 3.8752 -1 .00749 -344.639 -3253.189)"><stop offset="0" stop-color="red"/><stop offset="1" stop-color="#bf0015"/></linearGradient><path fill="url(#prefix__y)" d="M871.9 850.5L90.3 695.8l420.3 280 420.3 280-188.3-308.5-188.2-308.4-825-247.1-824.9-247.1 983.7 352.9z"/></g></svg>
